<svg xmlns="http://www.w3.org/2000/svg" viewBox="0 0 500 500"><g id="freepik--background-complete--inject-175"><path d="M369.23,401.47c-18.73-12.26-23.48-35.73-23.28-56.93,0-3.54-.45-7.26,1.18-10.4s5.56-5.36,8.8-3.94c2.69,1.17,3.93,4.19,5.48,6.69a20.93,20.93,0,0,0,8.59,7.72c2.31,1.11,5.15,1.76,7.38.48,3.05-1.76,3.31-6,3.2-9.5q-.3-9.82-.61-19.66c-.11-3.52-.21-7.11.82-10.47s3.4-6.53,6.77-7.54,7.6.81,8.4,4.23a30.39,30.39,0,0,1,.21,4.38c.14,1.46.87,3.06,2.28,3.43s2.84-.65,3.88-1.71c3.59-3.64,6-8.27,8.19-12.88s4.37-9.31,7.61-13.27,7.79-7.13,12.88-7.54,10.62,2.58,12,7.49-1.4,10-4.49,14.12a78.5,78.5,0,0,1-16.18,16,6.58,6.58,0,0,0-2.7,3c-.71,2.36,1.6,4.64,4,5.35,2.68.81,5.55.47,8.34.73s5.83,1.39,6.94,4c1.55,3.56-1.41,7.4-4.34,9.94a68.47,68.47,0,0,1-19.89,12c-2.6,1-5.33,1.91-7.4,3.77s-3.27,5.06-1.93,7.51,4.63,3.16,7.37,2.6,5.15-2.1,7.74-3.14c4.86-1.94,11.19-1.76,14.43,2.34,2.13,2.7,2.4,6.52,1.44,9.82a25.72,25.72,0,0,1-5.19,8.82,68.47,68.47,0,0,1-28.76,21c-11.26,4.16-21.76,5.46-33.15,1.66" style="fill:#f0f0f0"></path><path d="M437.77,277.35s-.11.12-.34.34l-1,.95c-.92.83-2.27,2.06-4,3.7a131.13,131.13,0,0,0-13.27,14.81c-2.58,3.32-5.25,7.08-8,11.16s-5.72,8.48-8.64,13.21a158.71,158.71,0,0,0-8.43,15.24c-1.31,2.73-2.47,5.57-3.65,8.47s-2.36,5.84-3.57,8.81A321,321,0,0,0,375,388.2a154.57,154.57,0,0,0-5.22,29,112.41,112.41,0,0,0,.17,19.88c.25,2.33.48,4.15.68,5.37.09.59.15,1.06.2,1.39s.06.48.06.48-.59-2.54-1.15-7.22a109.93,109.93,0,0,1-.34-19.93,153.18,153.18,0,0,1,5.13-29.11,313.5,313.5,0,0,1,11.84-34.23q1.82-4.45,3.57-8.81c1.18-2.89,2.35-5.76,3.67-8.49a156.07,156.07,0,0,1,8.48-15.28c2.94-4.73,5.9-9.11,8.7-13.2s5.5-7.82,8.1-11.14a126,126,0,0,1,13.43-14.73c1.71-1.61,3.09-2.82,4-3.63l1.07-.91C437.64,277.44,437.77,277.35,437.77,277.35Z" style="fill:#e0e0e0"></path><path d="M393.71,336.49a8.68,8.68,0,0,1-.36-1.5c-.2-1-.46-2.38-.74-4.12-.58-3.5-1.22-8.34-1.92-13.69s-1.41-10.17-2.07-13.64c-.32-1.74-.6-3.14-.8-4.11a8,8,0,0,1-.26-1.51,8.69,8.69,0,0,1,.46,1.46c.27,1,.6,2.35,1,4.08.75,3.46,1.54,8.3,2.23,13.65s1.29,10.1,1.76,13.7c.23,1.68.42,3.07.57,4.14A7.86,7.86,0,0,1,393.71,336.49Z" style="fill:#e0e0e0"></path><path d="M439.32,326.94a1.53,1.53,0,0,1-.47.09l-1.35.15c-1.18.12-2.88.29-5,.58-4.19.53-9.95,1.49-16.25,2.81s-11.95,2.8-16,4c-2,.58-3.66,1.09-4.79,1.44l-1.3.39a1.93,1.93,0,0,1-.47.11s.14-.09.43-.21l1.27-.49c1.11-.41,2.73-1,4.75-1.6,4-1.27,9.69-2.79,16-4.14s12.1-2.22,16.31-2.66c2.11-.24,3.82-.36,5-.42l1.36-.05A1.81,1.81,0,0,1,439.32,326.94Z" style="fill:#e0e0e0"></path><path d="M375,387.21a3.36,3.36,0,0,1-.31-.55c-.21-.42-.48-1-.82-1.62-.7-1.41-1.66-3.48-2.82-6-2.33-5.13-5.33-12.32-8.53-20.29s-6.15-15.17-8.38-20.34l-2.68-6.1c-.29-.68-.53-1.23-.72-1.66a2.72,2.72,0,0,1-.22-.6,2.34,2.34,0,0,1,.32.55l.81,1.62c.7,1.41,1.67,3.48,2.83,6,2.33,5.13,5.32,12.32,8.53,20.29s6.14,15.17,8.38,20.33c1.11,2.54,2,4.61,2.67,6.11.3.68.54,1.23.72,1.66A2.72,2.72,0,0,1,375,387.21Z" style="fill:#e0e0e0"></path><path d="M435.39,366.39a2.83,2.83,0,0,1-.6.25l-1.76.61-6.47,2.23c-5.47,1.88-13,4.57-21.28,7.57s-15.84,5.64-21.34,7.43c-2.75.9-5,1.6-6.53,2.06l-1.79.52a2.47,2.47,0,0,1-.64.15,3.57,3.57,0,0,1,.61-.25l1.75-.62,6.48-2.22c5.46-1.88,13-4.58,21.28-7.57s15.84-5.64,21.34-7.43c2.75-.9,5-1.6,6.53-2.06l1.79-.52A2.56,2.56,0,0,1,435.39,366.39Z" style="fill:#e0e0e0"></path><polygon points="120.7 248.08 137.66 297.63 214.44 297.63 213.87 295.08 182.83 294.12 168.52 248.06 120.7 248.08" style="fill:#e6e6e6"></polygon><path d="M154.73,271.36c.5,2-.37,4-1.95,4.44s-3.27-.88-3.77-2.91.36-4,1.94-4.45S154.22,269.33,154.73,271.36Z" style="fill:#fff"></path><polygon points="291.3 355.28 316.81 442.86 319.88 442.86 300.3 354.98 291.3 355.28" style="fill:#ebebeb"></polygon><polygon points="244.43 355.72 224.68 442.83 228.18 442.83 254.62 355.69 244.43 355.72" style="fill:#ebebeb"></polygon><polygon points="267.54 353.71 270.57 442.83 274.71 442.83 276.53 354.06 267.54 353.71" style="fill:#ebebeb"></polygon><polygon points="243.51 390.99 302.75 389.13 303.15 395.27 239.07 397.72 243.51 390.99" style="fill:#ebebeb"></polygon><polygon points="244.4 355.69 243.49 360.2 253.29 360.2 254.52 355.69 244.4 355.69" style="fill:#e0e0e0"></polygon><polygon points="267.52 353.96 267.73 360.2 276.42 360.2 276.53 355.05 267.52 353.96" style="fill:#e0e0e0"></polygon><polyline points="268.77 390.2 268.99 396.58 264.39 396.75 262.89 390.38 268.77 390.2" style="fill:#e0e0e0"></polyline><polygon points="275.8 389.86 275.66 396.34 279.26 396.2 280.09 389.86 275.8 389.86" style="fill:#e0e0e0"></polygon><polygon points="290.91 353.96 292.22 358.47 301.07 358.47 300.1 354.09 290.91 353.96" style="fill:#e0e0e0"></polygon><path d="M224.78,349.54c8.43-4.13,42.48-1.91,42.48-1.91s-9.62-119.34,2.81-120.29,40.59-9.91,45.66,8.14c5.34,19-1.87,120.36-9,119.38-16.24-2.24-66.34,3.56-81.42,0C221.43,354,224.78,349.54,224.78,349.54Z" style="fill:#f0f0f0"></path><path d="M305,237.54c.06,0,.3.3.71,1,.21.33.43.75.69,1.25s.54,1.1.83,1.77a41.81,41.81,0,0,1,2.94,12.07,152,152,0,0,1,.5,18.34c-.12,6.9-.54,14.48-1.16,22.4s-1.39,15.47-2.1,22.31-1.41,13-2.37,18.18a77.46,77.46,0,0,1-3.11,12,17.51,17.51,0,0,1-1.83,4.15,31.64,31.64,0,0,1,1.19-4.36,100.09,100.09,0,0,0,2.53-12c.8-5.12,1.37-11.27,2-18.12s1.34-14.39,2-22.29,1.09-15.44,1.29-22.31a174,174,0,0,0-.12-18.19,47.32,47.32,0,0,0-2.34-11.94C305.66,239,304.89,237.61,305,237.54Z" style="fill:#e0e0e0"></path><path d="M298.66,350.8c-.1.5-7.84-.72-17.44-1.49s-17.44-.85-17.46-1.36,7.88-1.18,17.6-.37S298.76,350.36,298.66,350.8Z" style="fill:#e0e0e0"></path><rect x="79.94" y="296.9" width="272.21" height="8.92" style="fill:#e6e6e6"></rect><polygon points="101.22 305.82 79.94 442.75 90.58 442.94 127.11 305.82 101.22 305.82" style="fill:#ebebeb"></polygon><polyline points="332.33 304.34 344.77 442.86 334.86 442.86 308.01 310.08 306.61 300.22 332.33 304.34" style="fill:#ebebeb"></polyline><polygon points="307.4 305.82 308.39 311.98 332.93 311.06 332.46 305.82 307.4 305.82" style="fill:#e0e0e0"></polygon><polygon points="101.22 305.82 100.22 312.13 125.58 311.42 127.11 305.82 101.22 305.82" style="fill:#e0e0e0"></polygon><path d="M89.84,298.14V287.46l5.38-1.19-5.38-3.33v-10.1h57.39v6.06l3.25,0c-.53.6,1,1.33.35,1.58-1.16.43-4,1.1-4,1.1l.71,4.21-3.22.72,4.3,3,.72,8-59.55,1.22" style="fill:#e0e0e0"></path><path d="M84.6,298.14V287.46L90,286.27l-5.38-3.33v-10.1H142v6.06l3.24,0c-.53.6,1.05,1.33.35,1.58-1.16.43-4,1.1-4,1.1l.72,4.21-3.23.72,4.3,3,.72,8L84.6,298.69" style="fill:#f0f0f0"></path><path d="M353.19,283a6.83,6.83,0,0,0-4.61-1.32c0-.89,0-1.44,0-1.44H323.41s-.79,16.6,11.92,17.19c5.69.26,8.95-2.29,10.81-5.5a12.87,12.87,0,0,0,2.85.35,6.64,6.64,0,0,0,4-1.12,5,5,0,0,0,1.89-4.26A4.88,4.88,0,0,0,353.19,283Zm-1.72,6.17c-1.07.8-3,.68-4.25.46a22.47,22.47,0,0,0,1.23-5.46,4.72,4.72,0,0,1,3.14.72,2.47,2.47,0,0,1,.77,2A2.63,2.63,0,0,1,351.47,289.12Z" style="fill:#f0f0f0"></path><path d="M174.76,166.92,162.2,154.79H95.94V115.12l93.46-2V154H173ZM96.94,153.79H162.6l10.78,10.41L171.85,153H188.4V114.18L96.94,116.1Z" style="fill:#e0e0e0"></path><rect x="108.26" y="125.11" width="31.23" height="3.66" style="fill:#e0e0e0"></rect><rect x="108.26" y="133.48" width="69.6" height="3.66" style="fill:#e0e0e0"></rect><rect x="108.26" y="140.74" width="69.6" height="3.66" style="fill:#e0e0e0"></rect><polygon points="141.11 35.82 143.01 87.37 220.84 87.37 292.38 63.39 292.38 32.02 141.11 35.82" style="fill:#e0e0e0"></polygon><path d="M221.23,56.94l.63,42.27H288s6.39,29.39,6.42,27.78,8.08-28.18,8.08-28.18l85.35-.8V54.93Z" style="fill:#f0f0f0"></path><rect x="239.12" y="71.26" width="130.79" height="4.14" style="fill:#fff"></rect><rect x="239.12" y="81" width="130.79" height="4.14" style="fill:#fff"></rect></g><g id="freepik--Floor--inject-175"><path d="M393.51,443.07c0,.14-74.77.26-167,.26s-167-.12-167-.26,74.75-.26,167-.26S393.51,442.92,393.51,443.07Z" style="fill:#263238"></path></g><g id="freepik--Plant--inject-175"><path d="M142.44,309.9c-5.67.91-8.2,7.87-7.7,13.58s2.84,11.31,2.21,17c-.8,7.24-6.27,13.36-6.91,20.62-.75,8.56,5.3,16.15,7.11,24.55.88,4.09.76,8.41,2.28,12.3a15.38,15.38,0,0,0,29.7-5.3c.13-6.57-3.93-12.76-3.43-19.32.36-4.84,3.2-9.43,2.59-14.26-.72-5.73-6-9.8-7.91-15.27s-.08-11.5-.72-17.25c-1.16-10.31-6.88-17.49-17.22-16.66" style="fill:#94B4FF"></path><path d="M113.51,359.81c-1,9.55,3.26,20.79,8.18,29a45.47,45.47,0,0,0,21.38,18.56c1,.42,2.24.77,3.08.09a3.06,3.06,0,0,0,.78-2.45,46.87,46.87,0,0,0-33.42-45.24" style="fill:#94B4FF"></path><path d="M113.51,359.81c-1,9.55,3.26,20.79,8.18,29a45.47,45.47,0,0,0,21.38,18.56c1,.42,2.24.77,3.08.09a3.06,3.06,0,0,0,.78-2.45,46.87,46.87,0,0,0-33.42-45.24" style="fill:#fff;opacity:0.2"></path><path d="M155.12,427.38a3,3,0,0,1-.27-.53c-.18-.41-.4-.93-.68-1.56-.57-1.37-1.43-3.33-2.53-5.74a202.11,202.11,0,0,0-9.48-18.36,205.26,205.26,0,0,0-11.34-17.28c-1.57-2.14-2.86-3.85-3.76-5l-1-1.36c-.23-.31-.35-.48-.33-.5a3.43,3.43,0,0,1,.41.43c.29.35.66.78,1.11,1.3,1,1.13,2.3,2.81,3.9,4.92a173.92,173.92,0,0,1,11.51,17.23A176.6,176.6,0,0,1,152,419.39c1.05,2.44,1.85,4.43,2.37,5.82.23.65.43,1.18.58,1.6A2.34,2.34,0,0,1,155.12,427.38Z" style="fill:#263238"></path><path d="M149,336.32a5.29,5.29,0,0,1,.11.92c0,.65.11,1.52.19,2.63.15,2.33.36,5.63.62,9.68.52,8.17,1.24,19.46,2.12,31.92s1.74,23.75,2.37,31.92c.31,4,.56,7.33.74,9.67.08,1.1.14,2,.18,2.63a5.32,5.32,0,0,1,0,.92,5.15,5.15,0,0,1-.14-.91c-.07-.65-.16-1.52-.28-2.62l-.91-9.66c-.73-8.16-1.66-19.44-2.53-31.91s-1.54-23.76-2-31.94c-.19-4.05-.34-7.35-.45-9.69q-.06-1.67-.09-2.64A7.16,7.16,0,0,1,149,336.32Z" style="fill:#263238"></path><path d="M140.19,413.76h23.92v17.56a11.48,11.48,0,0,1-11.48,11.49h0a11.48,11.48,0,0,1-11.47-10.87Z" style="fill:#263238"></path></g><g id="freepik--speech-bubble--inject-175"><path d="M398.49,149.61a36.67,36.67,0,0,1-66.59,14.17l-17.38,2.69,11.77-16.36a36.69,36.69,0,1,1,72.2-.5Z" style="fill:#94B4FF"></path><path d="M373.27,156.66c3,.1,5.18-3.69,5.36-9.62.31-10.08-6.66-17.7-16.78-18s-17.9,6.86-18.21,16.89c-.29,9.62,6.77,16.86,16.64,17.16a16.65,16.65,0,0,0,7.66-1.78l.59,1.36a18.31,18.31,0,0,1-8.3,2c-10.7-.33-18.37-8.26-18.05-18.75.33-10.92,8.73-18.69,19.72-18.36,10.83.33,18.49,8.55,18.15,19.55-.21,6.81-3,11.12-7,11-2.25-.07-4-1.75-4-4.47l.06-2.18a9.77,9.77,0,0,1-9.33,5.45A10.23,10.23,0,0,1,349.71,146c.18-6.11,4.63-10.53,10.61-10.35a9.62,9.62,0,0,1,8.86,5.83l.16-5.39,1.67.05-.52,17.06C370.43,155.32,371.69,156.62,373.27,156.66ZM351.46,146a8.77,8.77,0,1,0,9-8.64A8.56,8.56,0,0,0,351.46,146Z" style="fill:#fff"></path></g><g id="freepik--Character--inject-175"><path d="M314.11,170.77c-1.79-.54-5,9.07-5.5,6.61s5.28-11.31,3.39-11.8c-2.46-.64-5.62,9.49-5.95,10.32s-1.55.39-1.22-.35c.49-1.06,5.34-12.36,2.93-13-1.34-.36-1.76,2.1-1.76,2.1s-3.76,10.9-4.89,10.56.85-6.83,1.67-9,.14-3.35-1.09-2.94c-.84.29-3.53,6.77-4.29,8.9s-2.77,8-4.14,4.31-3.83-6-4.93-6.2a1.24,1.24,0,0,0-.87,2.17,14.4,14.4,0,0,1,2.07,3.41,9.59,9.59,0,0,1,.88,3.07,33,33,0,0,1,.15,6.44l0,.6L278.7,215.43l-13.21-29c-4.23-14.06-21.7-14.64-21.7-14.64L226.47,170c-6.26-2.41-13.25-2-17.14.22a20.06,20.06,0,0,0-9.47,13.46c-4,19.62-17.88,89.88-19,120.65h0a95.4,95.4,0,0,0-1.58,10.14c-.34,5.33.14,5.37.76,5.3,1.69-.18,1-9.36,2.26-7.48s-.41,11.34,1.34,11.08C186,323,185,313.4,185,312.58s1.16-.87,1.14-.13c0,1.06-.08,12.24,2.17,11.93,1.24-.17.73-2.38.73-2.38s-.73-10.46.34-10.58,1.72,6,1.78,8.1,1.07,2.86,2,2.08c.6-.54.55-6.92.44-9s-.53-7.7,1.93-5.09,5.34,3.7,6.33,3.45a1.13,1.13,0,0,0-.05-2.13,13.42,13.42,0,0,1-2.95-2.12,8.87,8.87,0,0,1-1.79-2.21c-.15-.27-.27-.52-.41-.77.38-5.85,3.82-56.11,12.68-90.55l1.66-4.29c1.74,7,.7,21.32-3,27.51-6.07,10.26-5.59,35.47-5.59,35.47L258.27,274s-.43-9.27-.92-21.11l-1.24-34.82.14-6.67.26-.7c2.7,4.31,6.08,9.84,10.25,16.89,13.89,23.43,25.61-4.46,25.61-4.46l11.87-33.58a144.32,144.32,0,0,0,8.37-13.1C315.24,171.21,314.77,171,314.11,170.77Z" style="fill:#e5baab"></path><path d="M228.13,438.8v-9l-16.93-.11-.14,13.23,1.05.07c4.67.29,23.77,1.14,26.9.22C242.5,442.13,228.13,438.8,228.13,438.8Z" style="fill:#94B4FF"></path><path d="M239.41,442.34c0,.16-6.34.29-14.15.29s-14.14-.13-14.14-.29,6.33-.29,14.14-.29S239.41,442.18,239.41,442.34Z" style="fill:#263238"></path><path d="M228.43,440.65c-.14-.08,0-.57.35-1s.8-.71.91-.6-.12.52-.45.95S228.57,440.72,228.43,440.65Z" style="fill:#263238"></path><path d="M229.51,441.24c-.15-.06-.07-.6.26-1.16s.78-.9.9-.8-.09.57-.4,1.09S229.66,441.3,229.51,441.24Z" style="fill:#263238"></path><path d="M216.22,442.28c-.07.05-.32-.19-.69-.59a10.5,10.5,0,0,0-1.5-1.43,4.05,4.05,0,0,0-1.82-.75c-.51-.07-.84,0-.87-.08s.28-.29.88-.33a3.38,3.38,0,0,1,2.15.69,6,6,0,0,1,1.49,1.65C216.15,441.91,216.28,442.23,216.22,442.28Z" style="fill:#263238"></path><path d="M228.48,439c.08.13-.21.45-.69.62s-.92.11-.94-.05.32-.34.74-.49S228.4,438.81,228.48,439Z" style="fill:#263238"></path><path d="M228.22,438.07c0,.16-.44.3-1,.31s-1-.12-1-.28.47-.3,1-.3S228.2,437.91,228.22,438.07Z" style="fill:#263238"></path><path d="M246,435.6l2.68-8.64-16.14-5.11-4.05,12.59,1,.38c4.38,1.66,22.36,8.12,25.63,8.17C258.73,443,246,435.6,246,435.6Z" style="fill:#94B4FF"></path><path d="M255.71,442.31c0,.16-6.13-1.59-13.59-3.91s-13.47-4.31-13.42-4.46,6.13,1.6,13.59,3.91S255.76,442.16,255.71,442.31Z" style="fill:#263238"></path><path d="M245.73,437.45c-.11-.12.15-.54.64-.89s1-.44,1-.3-.27.46-.72.78S245.84,437.56,245.73,437.45Z" style="fill:#263238"></path><path d="M246.59,438.34c-.13-.1.11-.6.59-1s1-.63,1.09-.5-.25.52-.7.93S246.71,438.44,246.59,438.34Z" style="fill:#263238"></path><path d="M233.59,435.39c-.08,0-.25-.27-.49-.77a10.7,10.7,0,0,0-1-1.8,4,4,0,0,0-1.52-1.26c-.46-.22-.8-.25-.8-.34s.35-.19.94-.05a3.47,3.47,0,0,1,1.85,1.3,6.14,6.14,0,0,1,.93,2C233.63,435,233.66,435.37,233.59,435.39Z" style="fill:#263238"></path><path d="M246.28,435.84c0,.15-.34.37-.85.39s-.9-.17-.87-.33.4-.23.85-.25S246.25,435.68,246.28,435.84Z" style="fill:#263238"></path><path d="M246.29,434.93c0,.15-.51.15-1,0s-1-.42-.89-.57.53-.14,1.05,0S246.32,434.77,246.29,434.93Z" style="fill:#263238"></path><path d="M243.46,172.91c-.26-1.88.75-9.7.75-9.7s7.19-.52,7.85-7.61.75-23.47.75-23.47L240,125.34l-14.7,10.4L221.45,144l4.88,18v9.32Z" style="fill:#e5baab"></path><path d="M251.92,143.05c.05-.05,0-.28-.32-.55a2.4,2.4,0,0,0-2.85-.26c-.33.21-.46.42-.41.48s.85-.33,1.82-.23a2.2,2.2,0,0,1,.37.06.9.9,0,1,0,1.32.82.86.86,0,0,0,0-.32S251.89,143.08,251.92,143.05Z" style="fill:#263238"></path><path d="M241.07,142.71c.06-.05,0-.29-.31-.55a2.4,2.4,0,0,0-1.38-.61,2.47,2.47,0,0,0-1.48.34c-.32.21-.45.42-.4.48s.84-.32,1.82-.23a3,3,0,0,1,.47.09.9.9,0,1,0,1.1,1.36.9.9,0,0,0,.09-.88Z" style="fill:#263238"></path><path d="M244.33,151.08a6.8,6.8,0,0,1,1.61-.15c.25,0,.5,0,.55-.21a1.36,1.36,0,0,0-.11-.8c-.19-.64-.39-1.33-.61-2a37.88,37.88,0,0,1-1.32-5.34,7.1,7.1,0,0,1,.58,1.51c.31.95.71,2.26,1.13,3.72l.57,2a1.56,1.56,0,0,1,.07,1,.6.6,0,0,1-.43.34,1.28,1.28,0,0,1-.43,0A6.31,6.31,0,0,1,244.33,151.08Z" style="fill:#263238"></path><path d="M241.07,151.91c.79.29,2.68,1.71,4.68,1.78a2.7,2.7,0,0,1-3.27.81C240.42,153.55,241.07,151.91,241.07,151.91Z" style="fill:#efede9"></path><path d="M244.21,163.21a17.75,17.75,0,0,1-9.3-3.47s2,5.28,9.09,5.21Z" style="fill:#d78776"></path><path d="M257.59,121.55a4.34,4.34,0,0,0-4-1.06,26.53,26.53,0,0,0-4.08,1.39,6.25,6.25,0,0,1-4.21.25c-1.85-.7-2.87-2.67-4.46-3.84a5.9,5.9,0,0,0-8.81,2.24c-.8,1.69-1,4-2.64,4.77-1.35.65-2.92,0-4.35-.47a6.89,6.89,0,0,0-4.09-.14,3.64,3.64,0,0,0-2.55,3c-.08,1.26.68,2.46.64,3.73-.06,1.93-1.88,3.28-3.54,4.26s-3.53,2.16-3.86,4.06a5.07,5.07,0,0,0,1.88,4.31,47.17,47.17,0,0,1,3.66,3.25c1.05,1.24,1.68,3.07.92,4.52-.39.72-1.09,1.29-1.25,2.09-.28,1.35,1,2.44,2.23,3.12a10.56,10.56,0,0,0,4,1.56,4.87,4.87,0,0,0,1.7-.11c1,2.85,1.57,5.25,1.57,5.25,1.19,1.93,1.19-4.37,1.19-4.37s.58-6.08-.39-8.39c0,0-3.6,1.4-4.8-5.15-.6-3.23,4.24-5.07,5.8-1.21l3.08.11s-.36-12.63,6.76-10.45c12.56,3.85,19.29-.2,20.16-10.4h0A2.61,2.61,0,0,0,257.59,121.55Z" style="fill:#263238"></path><path d="M226.89,149s-.1.08-.27.18a1.06,1.06,0,0,1-.79.06,2.61,2.61,0,0,1-1.34-2.26,3.45,3.45,0,0,1,.2-1.53,1.22,1.22,0,0,1,.74-.86.54.54,0,0,1,.64.25c.09.17.06.29.09.3s.13-.11.06-.36a.65.65,0,0,0-.26-.36.78.78,0,0,0-.59-.12,1.47,1.47,0,0,0-1,1,3.67,3.67,0,0,0-.27,1.71,2.75,2.75,0,0,0,1.7,2.52,1.08,1.08,0,0,0,1-.22C226.89,149.11,226.92,149,226.89,149Z" style="fill:#d78776"></path><path d="M257.79,260.22l-22.21-1.7h0l-33.67-2.73,3.76,180.83,29.23-.38s0-2-.07-5.54L252,435.38s16.7-56.41,22.39-79.56C279.11,336.5,257.79,260.22,257.79,260.22ZM234.52,402.58c-.45-41.74-1.05-108.48-.44-117.16,0,0,16.37,58.25,16.52,63.18C250.7,351.6,241.63,380.44,234.52,402.58Z" style="fill:#263238"></path><polygon points="234.52 402.58 234.83 430.69 239.55 431.99 238.41 390.39 234.52 402.58" style="opacity:0.2"></polygon><path d="M233.71,285.22c-.09-.05.68-1.23,1.33-3.36a28.47,28.47,0,0,0,1.05-8.59c0-3.4-.25-6.51-.17-8.77a25.32,25.32,0,0,1,.17-2.66,3.25,3.25,0,0,1,.19-1c.09,0,0,1.39,0,3.62s.31,5.32.35,8.77a25.63,25.63,0,0,1-1.24,8.72,13.13,13.13,0,0,1-1.14,2.43A3,3,0,0,1,233.71,285.22Z" style="fill:#455a64"></path><path d="M230.62,262.35s.11-.18.43-.31a2.06,2.06,0,0,1,1.46,0,2,2,0,0,1,1.38,1.68,2.21,2.21,0,0,1-3.86,1.81,2,2,0,0,1-.4-2.15,2.11,2.11,0,0,1,.94-1.11c.31-.16.51-.16.52-.12a2.6,2.6,0,0,0-1.07,1.36,1.64,1.64,0,0,0,.39,1.65,1.7,1.7,0,0,0,3-1.38,1.67,1.67,0,0,0-1-1.36A2.69,2.69,0,0,0,230.62,262.35Z" style="fill:#455a64"></path><path d="M259.92,269.16a4.2,4.2,0,0,1-2.08.81,7.78,7.78,0,0,1-8.72-5,4.15,4.15,0,0,1-.35-2.19c.1,0,.19.83.73,2a8.44,8.44,0,0,0,3.35,3.76,8.34,8.34,0,0,0,4.94,1C259.11,269.42,259.88,269.07,259.92,269.16Z" style="fill:#455a64"></path><path d="M214.47,258.3s.16.26.29.77a8.27,8.27,0,0,1,.23,2.21,9.63,9.63,0,0,1-9.47,9.51,8.47,8.47,0,0,1-2.22-.22,2.08,2.08,0,0,1-.76-.28,27.27,27.27,0,0,0,3,.09,9.68,9.68,0,0,0,9.09-9.12A24,24,0,0,0,214.47,258.3Z" style="fill:#455a64"></path><path d="M235.06,429.37c0,.16-6.54.29-14.6.29s-14.6-.13-14.6-.29,6.53-.29,14.6-.29S235.06,429.21,235.06,429.37Z" style="fill:#455a64"></path><path d="M209.69,429.79c-.16,0-.62-35.66-1-79.65s-.59-79.65-.43-79.65.61,35.65,1,79.65S209.85,429.79,209.69,429.79Z" style="fill:#455a64"></path><path d="M235.45,409.65a1.58,1.58,0,0,1,.08-.34l.27-1c.27-.88.64-2.13,1.11-3.71,1-3.25,2.44-7.89,4.2-13.61s3.92-12.58,6.29-20.16c1.19-3.79,2.44-7.77,3.73-11.9l2-6.29c.31-1.06.72-2.16,1-3.2a16.15,16.15,0,0,0-.43-3.27c-1-4.47-2.17-8.79-3.32-12.95s-2.34-8.17-3.47-12c-2.26-7.63-4.36-14.47-6.12-20.22s-3.19-10.36-4.2-13.61c-.48-1.58-.85-2.82-1.12-3.7l-.28-1a1.58,1.58,0,0,1-.08-.34,2.16,2.16,0,0,1,.13.32c.09.24.2.56.34.95.29.88.7,2.11,1.23,3.67,1,3.24,2.53,7.86,4.37,13.56s4,12.57,6.24,20.18c1.14,3.81,2.33,7.81,3.5,12s2.38,8.48,3.34,13c.12.57.23,1.13.31,1.7a6.27,6.27,0,0,1,.11.87,3.49,3.49,0,0,1,0,.92c-.27,1.16-.66,2.18-1,3.26l-2,6.29c-1.31,4.12-2.57,8.1-3.77,11.89l-6.41,20.13c-1.84,5.7-3.33,10.32-4.37,13.56l-1.22,3.68c-.13.39-.24.7-.33.95A2.16,2.16,0,0,1,235.45,409.65Z" style="fill:#455a64"></path><path d="M234.81,422.87a15.62,15.62,0,0,1,2.67.85l6.69,2.34,6.69,2.33a15.61,15.61,0,0,1,2.74,1.09,14.78,14.78,0,0,1-2.86-.7c-1.75-.5-4.14-1.26-6.76-2.17s-5-1.81-6.64-2.5A10.44,10.44,0,0,1,234.81,422.87Z" style="fill:#455a64"></path><path d="M219.61,339.69a1.6,1.6,0,0,1,.44-.35,4.67,4.67,0,0,1,1.49-.62,5.13,5.13,0,0,1,2.57.06,5.26,5.26,0,0,1,2.77,2,6.68,6.68,0,0,1,1.1,4c0,1.48-.09,3-.14,4.66a33.8,33.8,0,0,1-.42,5.16,7.29,7.29,0,0,1-1,2.61,4.33,4.33,0,0,1-2.36,1.74,5.64,5.64,0,0,1-5.34-1.56,8.58,8.58,0,0,1-2.21-4.74,21.57,21.57,0,0,1,.66-8.71,11.76,11.76,0,0,1,1.25-3.14,4,4,0,0,1,1.94-1.68,2.76,2.76,0,0,1,1.62-.15,1.24,1.24,0,0,1,.52.21,3.09,3.09,0,0,0-2.05.15,3.76,3.76,0,0,0-1.75,1.64,12.16,12.16,0,0,0-1.14,3.07,22.09,22.09,0,0,0-.52,8.53,8.13,8.13,0,0,0,2.07,4.42,5.11,5.11,0,0,0,4.79,1.4,3.69,3.69,0,0,0,2-1.51,6.53,6.53,0,0,0,1-2.4,35.4,35.4,0,0,0,.43-5.07c.07-1.63.19-3.2.2-4.63a6.29,6.29,0,0,0-.95-3.73,5,5,0,0,0-2.54-1.9,4.89,4.89,0,0,0-2.42-.15A7.08,7.08,0,0,0,219.61,339.69Z" style="fill:#455a64"></path><path d="M261.58,348.05a26.67,26.67,0,0,1-5.51.71,26.4,26.4,0,0,1-5.55.12,27,27,0,0,1,5.51-.7A26.85,26.85,0,0,1,261.58,348.05Z" style="fill:#455a64"></path><path d="M259.67,351.33a31.59,31.59,0,0,1-8.27-2.39,16.63,16.63,0,0,1,4.22.92A16.37,16.37,0,0,1,259.67,351.33Z" style="fill:#455a64"></path><path d="M273,342.26a1.47,1.47,0,0,1,.45.24,3.09,3.09,0,0,1,.95,1.12c.66,1.14.82,3.05.78,5.29a19.87,19.87,0,0,1-1.41,7.81A11.13,11.13,0,0,1,271,360.6a5.72,5.72,0,0,1-2.21,1.32,2.87,2.87,0,0,1-1.4,0,2.32,2.32,0,0,1-1.2-.78,5.29,5.29,0,0,1-.95-2.48,21.35,21.35,0,0,1-.33-2.48,22.1,22.1,0,0,1,.2-4.71,21,21,0,0,1,2.66-7.48,5.54,5.54,0,0,1,2.16-2.21,2.87,2.87,0,0,1,2.33-.12,2.08,2.08,0,0,1,1.12,1,1.14,1.14,0,0,1,.14.5s-.07-.17-.24-.44a2.09,2.09,0,0,0-1.09-.8,2.58,2.58,0,0,0-2.11.19,5.31,5.31,0,0,0-2,2.13,21.23,21.23,0,0,0-2.48,7.35,21.71,21.71,0,0,0-.16,4.59,22.77,22.77,0,0,0,.32,2.41,4.9,4.9,0,0,0,.84,2.22,1.81,1.81,0,0,0,2,.55,5.05,5.05,0,0,0,2-1.19,10.73,10.73,0,0,0,2.63-3.67,20.22,20.22,0,0,0,1.48-7.6,11.66,11.66,0,0,0-.57-5.18A4.31,4.31,0,0,0,273,342.26Z" style="fill:#455a64"></path><polygon points="289.7 160.07 296.37 189 311.98 185.63 306.52 155.94 289.7 160.07" style="fill:#263238"></polygon><polygon points="291.55 161.56 296.66 184.72 310.2 181.38 305.36 158.11 291.55 161.56" style="fill:#fff"></polygon><path d="M305.41,185a1.44,1.44,0,1,1-1.43-1.43A1.43,1.43,0,0,1,305.41,185Z" style="fill:#455a64"></path><polygon points="301.25 158.42 295.06 159.81 295.08 159.9 301.27 158.51 301.25 158.42" style="fill:#455a64"></polygon><rect x="293.63" y="161.34" width="12.23" height="9.76" transform="translate(-29.15 69.75) rotate(-12.66)" style="fill:#f0f0f0"></rect><polygon points="295.17 173.42 296.08 176.81 307.79 174.13 306.96 170.44 295.17 173.42" style="fill:#e0e0e0"></polygon><polygon points="296.47 178.12 297.54 183.27 309.11 180.38 308 175.47 296.47 178.12" style="fill:#ebebeb"></polygon><path d="M210.56,211.13c-.32,1.75-.79,4.39-1.35,7.49,6.83.29,15,.65,23.89,1.06,9.33.44,18,.86,25,1.22l-.07-7.57c-7-.29-15.44-.66-24.59-1.09C225,211.85,217.18,211.47,210.56,211.13Z" style="fill:#94B4FF"></path><path d="M200.92,178.48a56.23,56.23,0,0,0-3.45,7.55c7.45.26,21.28.84,37.12,1.58,14.08.65,26.59,1.28,34.41,1.71a65.23,65.23,0,0,0-3.66-7.83c-7.77-.3-18.53-.77-30.41-1.32C221.08,179.53,208.77,178.91,200.92,178.48Z" style="fill:#94B4FF"></path><path d="M243.53,171.84a11.27,11.27,0,0,1-1.72,1.78c5.34.25,10.35.49,14.85.72A53.66,53.66,0,0,0,243.53,171.84Z" style="fill:#94B4FF"></path><path d="M220.24,258.91l38.28,6,0-4.33c-7.43-.31-17-.72-27.36-1.21Z" style="fill:#94B4FF"></path><path d="M259.58,217.29l2.91-3.78-4.42-.18Z" style="fill:#94B4FF"></path><path d="M204.58,243c-.61,2.75-1.21,5.38-1.71,7.52,7.61.3,17.68.74,28.74,1.26,10.14.47,19.45.92,26.8,1.3l-.07-7.58c-7.28-.3-16.44-.7-26.38-1.16C221.55,243.83,212,243.37,204.58,243Z" style="fill:#94B4FF"></path><path d="M202.77,250.92c-.66,2.78-1.11,4.62-1.11,4.62l14,2.61c4.79.21,10,.44,15.45.7,10.39.48,19.91.94,27.34,1.33l-.07-6.66c-7.35-.31-16.67-.71-26.83-1.19C220.49,251.82,210.38,251.32,202.77,250.92Z" style="fill:#94B4FF"></path><path d="M206.26,235c-.47,2.39-1,5-1.58,7.51,7.42.3,16.93.72,27.3,1.2,9.94.46,19.08.91,26.35,1.28l-.07-7.58c-7.21-.3-16.19-.69-25.93-1.14S213.49,235.4,206.26,235Z" style="fill:#94B4FF"></path><path d="M194.85,194.2C194,197.31,193.41,200,193,202c5.64.15,21.77.81,40.8,1.7,14.39.66,27.11,1.3,34.9,1.74l4-5.26s-.26-.89-.72-2.32c-7.25-.25-21.49-.85-37.87-1.61C216.59,195.39,201.48,194.62,194.85,194.2Z" style="fill:#94B4FF"></path><path d="M193,202.13c-.31,1.63-.46,2.61-.46,2.61L211,208.92s-.11.63-.31,1.73c6.62.28,14.44.62,22.83,1,11.35.53,21.66,1,29.33,1.44l5.69-7.39c-7.82-.29-20.44-.83-34.67-1.49C214.76,203.34,198.61,202.51,193,202.13Z" style="fill:#94B4FF"></path><path d="M209.13,219.1c-.42,2.32-.87,4.88-1.34,7.5,7,.29,15.64.67,24.94,1.1,9.53.44,18.33.87,25.45,1.24l-.07-7.57c-7.05-.29-15.69-.68-25-1.11C224.2,219.85,216,219.45,209.13,219.1Z" style="fill:#94B4FF"></path><path d="M197.36,186.31c-1,2.63-1.78,5.25-2.45,7.67,6.67.2,21.75.83,39.3,1.65,16.31.75,30.49,1.47,37.75,1.9-.64-2-1.62-4.85-2.82-7.86-7.82-.29-20.4-.83-34.58-1.48C218.65,187.45,204.78,186.75,197.36,186.31Z" style="fill:#94B4FF"></path><path d="M207.71,227.06c-.28,1.56-.56,3.13-.83,4.67-.16.9-.34,1.85-.53,2.84,7.22.3,16.23.7,26,1.15s18.71.89,25.91,1.26l-.07-7.57c-7.14-.3-15.95-.69-25.49-1.13C223.37,227.85,214.75,227.43,207.71,227.06Z" style="fill:#94B4FF"></path><path d="M230.19,173.08a22.71,22.71,0,0,1-3.94-3.36s-9.74-4.27-17.35-.14a14.45,14.45,0,0,0-3.23,2.44C212.22,172.28,220.73,172.64,230.19,173.08Z" style="fill:#94B4FF"></path><path d="M205.28,172.41a28.19,28.19,0,0,0-4.17,5.72c7.86.3,20.1.82,33.85,1.46,11.75.54,22.38,1.07,30.14,1.48a14.43,14.43,0,0,0-3.27-4.1,17.39,17.39,0,0,0-3.71-2.07c-5.06-.21-10.84-.46-17-.74-3.39,2.25-7.06,1.19-9.91-.46C221.14,173.22,212.11,172.78,205.28,172.41Z" style="fill:#94B4FF"></path><path d="M201.11,178.13a3.9,3.9,0,0,0-.19.35c7.85.43,20.16,1.05,34,1.69,11.88.55,22.64,1,30.41,1.32l-.24-.42c-7.76-.41-18.39-.94-30.14-1.48C221.21,179,209,178.43,201.11,178.13Z" style="fill:#263238"></path><path d="M256.66,174.34c-4.5-.23-9.51-.47-14.85-.72q-.36.28-.72.54c6.19.28,12,.53,17,.74C257.64,174.7,257.15,174.52,256.66,174.34Z" style="fill:#263238"></path><path d="M205.67,172c-.14.12-.26.26-.39.39,6.83.37,15.86.81,25.9,1.29-.34-.2-.67-.41-1-.62C220.73,172.64,212.22,172.28,205.67,172Z" style="fill:#263238"></path><path d="M197.47,186a2.33,2.33,0,0,1-.11.28c7.42.44,21.29,1.14,37.2,1.88,14.18.65,26.76,1.19,34.58,1.48,0-.11-.09-.23-.14-.35-7.82-.43-20.33-1.06-34.41-1.71C218.75,186.87,204.92,186.29,197.47,186Z" style="fill:#263238"></path><path d="M194.91,194l-.06.22c6.63.42,21.74,1.19,39.34,2,16.38.76,30.62,1.36,37.87,1.61,0-.09-.06-.18-.1-.28-7.26-.43-21.44-1.15-37.75-1.9C216.66,194.81,201.58,194.18,194.91,194Z" style="fill:#263238"></path><path d="M193,202a1.16,1.16,0,0,1,0,.18c5.61.38,21.76,1.21,40.82,2.09,14.23.66,26.85,1.2,34.67,1.49l.25-.32c-7.79-.44-20.51-1.08-34.9-1.74C214.81,202.76,198.68,202.1,193,202Z" style="fill:#263238"></path><path d="M210.64,210.65c0,.15,0,.31-.08.48,6.62.34,14.47.72,22.88,1.11,9.15.43,17.62.8,24.59,1.09h0v-.09l0,.09,4.42.18.31-.41c-7.67-.4-18-.91-29.33-1.44C225.08,211.27,217.26,210.93,210.64,210.65Z" style="fill:#263238"></path><path d="M209.21,218.62c0,.16-.05.32-.08.48,6.84.35,15.07.75,23.94,1.16,9.35.43,18,.82,25,1.11h0v-.47h0c-7-.36-15.67-.78-25-1.22C224.26,219.27,216,218.91,209.21,218.62Z" style="fill:#263238"></path><path d="M207.79,226.6c0,.15,0,.31-.08.46,7,.37,15.66.79,25,1.22,9.54.44,18.35.83,25.49,1.13h0v-.47h0c-7.12-.37-15.92-.8-25.45-1.24C223.43,227.27,214.82,226.89,207.79,226.6Z" style="fill:#263238"></path><path d="M206.35,234.57l-.09.46c7.23.37,16.26.81,26.07,1.27s18.72.84,25.93,1.14h0V237h0c-7.2-.37-16.17-.81-25.91-1.26S213.57,234.87,206.35,234.57Z" style="fill:#263238"></path><path d="M204.68,242.54c0,.14-.07.29-.1.44,7.43.39,17,.85,27.38,1.34,9.94.46,19.1.86,26.38,1.16h0V245h0c-7.27-.37-16.41-.82-26.35-1.28C221.61,243.26,212.1,242.84,204.68,242.54Z" style="fill:#263238"></path><path d="M202.87,250.5c0,.14-.07.28-.1.42,7.61.4,17.72.9,28.81,1.41,10.16.48,19.48.88,26.83,1.19h0v-.45h0c-7.35-.38-16.66-.83-26.8-1.3C220.55,251.24,210.48,250.8,202.87,250.5Z" style="fill:#263238"></path><path d="M215.69,258.15l3.94.73.61,0,10.88.51c10.39.49,19.93.9,27.36,1.21h.06v-.45h0c-7.43-.39-17-.85-27.34-1.33C225.69,258.59,220.48,258.36,215.69,258.15Z" style="fill:#263238"></path><path d="M258.32,220.66c-.16,0-.85-5.8-1.54-13s-1.12-13-1-13,.85,5.8,1.54,13S258.48,220.64,258.32,220.66Z" style="fill:#263238"></path><path d="M257.67,191.83c.13.09-.3.95-1,1.93s-1.31,1.71-1.45,1.62.3-1,1-1.94S257.54,191.74,257.67,191.83Z" style="fill:#263238"></path><path d="M248.56,223c.08.14-6.92,4-15.64,8.59s-15.84,8.21-15.91,8.07,6.93-4,15.64-8.58S248.49,222.85,248.56,223Z" style="fill:#263238"></path><path d="M250.25,229.88a22.73,22.73,0,0,1-3.33.72l-8,1.51-8,1.63a21.36,21.36,0,0,1-3.35.6,17.19,17.19,0,0,1,3.26-1c2-.53,4.86-1.19,8-1.81s6-1.07,8.1-1.35A19,19,0,0,1,250.25,229.88Z" style="fill:#263238"></path><path d="M211.91,199.29a10.05,10.05,0,0,1,0,2.58c-.06,1.59-.23,3.78-.54,6.19s-.72,4.58-1.06,6.14a11.14,11.14,0,0,1-.7,2.48,11.15,11.15,0,0,1,.3-2.56c.24-1.57.57-3.73.88-6.13s.55-4.58.71-6.15A12.54,12.54,0,0,1,211.91,199.29Z" style="fill:#263238"></path><path d="M243.67,171.44a2.49,2.49,0,0,1-.45.69,13.89,13.89,0,0,1-1.48,1.66,7,7,0,0,1-2.86,1.74,7.89,7.89,0,0,1-4.09,0,17,17,0,0,1-6.46-3.46,14.53,14.53,0,0,1-1.58-1.57c-.34-.39-.5-.64-.47-.66s.83.81,2.29,1.94a18.33,18.33,0,0,0,6.35,3.24,7.61,7.61,0,0,0,3.84.08,7.1,7.1,0,0,0,2.74-1.54C242.87,172.29,243.6,171.38,243.67,171.44Z" style="fill:#263238"></path></g></svg>